<svg xmlns="http://www.w3.org/2000/svg" viewBox="0 0 128 128">
  <g transform="translate(64 64)">
    <!-- filled football silhouette (no square background) -->
    <path d="M-58 0 Q-32 -38 0 -38 Q32 -38 58 0 Q32 38 0 38 Q-32 38 -58 0 Z"
          fill="#0076B6" stroke="#0076B6" stroke-width="2" stroke-linejoin="round"/>
    <!-- white nose stripes near the points -->
    <path d="M-58 0 Q-49 -10 -44 0 Q-49 10 -58 0 Z" fill="#FFFFFF"/>
    <path d="M58 0 Q49 -10 44 0 Q49 10 58 0 Z" fill="#FFFFFF"/>
    <!-- center seam + laces -->
    <line x1="-22" y1="0" x2="22" y2="0" stroke="#FFFFFF" stroke-width="7" stroke-linecap="round"/>
    <g stroke="#FFFFFF" stroke-width="6" stroke-linecap="round">
      <line x1="-16" y1="-8" x2="-16" y2="8"/>
      <line x1="-5"  y1="-9" x2="-5"  y2="9"/>
      <line x1="6"   y1="-9" x2="6"   y2="9"/>
      <line x1="17"  y1="-8" x2="17"  y2="8"/>
    </g>
  </g>
</svg>
